<svg width="203" height="39" viewBox="0 0 203 39" fill="none" xmlns="http://www.w3.org/2000/svg">
<path d="M16.9261 9.63068C16.8314 8.58901 16.41 7.77936 15.6619 7.2017C14.9233 6.61458 13.8674 6.32102 12.4943 6.32102C11.5852 6.32102 10.8277 6.43939 10.2216 6.67614C9.61553 6.91288 9.16098 7.23958 8.85795 7.65625C8.55492 8.06345 8.39867 8.5322 8.3892 9.0625C8.37027 9.49811 8.45549 9.88163 8.64489 10.2131C8.84375 10.5445 9.12784 10.8381 9.49716 11.0938C9.87595 11.34 10.3305 11.5578 10.8608 11.7472C11.3911 11.9366 11.9877 12.1023 12.6506 12.2443L15.1506 12.8125C16.59 13.125 17.8589 13.5417 18.9574 14.0625C20.0653 14.5833 20.9934 15.2036 21.7415 15.9233C22.4991 16.643 23.072 17.4716 23.4602 18.4091C23.8485 19.3466 24.0473 20.3977 24.0568 21.5625C24.0473 23.3996 23.5833 24.9763 22.6648 26.2926C21.7462 27.6089 20.4252 28.6174 18.7017 29.3182C16.9877 30.0189 14.9186 30.3693 12.4943 30.3693C10.0606 30.3693 7.93939 30.0047 6.13068 29.2756C4.32197 28.5464 2.91572 27.4384 1.91193 25.9517C0.908144 24.465 0.392045 22.5852 0.363636 20.3125H7.09659C7.15341 21.25 7.40436 22.0312 7.84943 22.6562C8.29451 23.2812 8.9053 23.7547 9.68182 24.0767C10.4678 24.3987 11.3769 24.5597 12.4091 24.5597C13.3561 24.5597 14.161 24.4318 14.8239 24.1761C15.4962 23.9205 16.0123 23.5653 16.3722 23.1108C16.732 22.6562 16.9167 22.1354 16.9261 21.5483C16.9167 20.9991 16.7462 20.5303 16.4148 20.142C16.0833 19.7443 15.572 19.4034 14.8807 19.1193C14.1989 18.8258 13.3277 18.5559 12.267 18.3097L9.22727 17.5994C6.70833 17.0218 4.72443 16.089 3.27557 14.8011C1.8267 13.5038 1.10701 11.7519 1.11648 9.54545C1.10701 7.74621 1.58996 6.16951 2.56534 4.81534C3.54072 3.46117 4.89015 2.4053 6.61364 1.64773C8.33712 0.890151 10.3021 0.511363 12.5085 0.511363C14.7623 0.511363 16.7178 0.894885 18.375 1.66193C20.0417 2.41951 21.3343 3.48485 22.2528 4.85795C23.1714 6.23106 23.6402 7.82197 23.6591 9.63068H16.9261ZM25.8563 6.61932V0.90909H50.4443V6.61932H41.6233V30H34.6915V6.61932H25.8563ZM53.0783 30V0.90909H73.3624V6.61932H60.1095V12.5852H72.3254V18.3097H60.1095V24.2898H73.3624V30H53.0783ZM76.9658 0.90909H85.6732L93.0595 18.9205H93.4004L100.787 0.90909H109.494V30H102.648V12.1307H102.406L95.4175 29.8153H91.0425L84.0538 12.0312H83.8124V30H76.9658V0.90909ZM120.874 30V0.90909H133.004C135.182 0.90909 137.005 1.21686 138.473 1.83239C139.95 2.44792 141.058 3.30966 141.797 4.41761C142.545 5.52557 142.919 6.80871 142.919 8.26705C142.919 9.375 142.687 10.3646 142.223 11.2358C141.759 12.0975 141.12 12.8125 140.305 13.3807C139.491 13.9489 138.549 14.3466 137.479 14.5739V14.858C138.653 14.9148 139.737 15.232 140.732 15.8097C141.735 16.3873 142.54 17.1922 143.146 18.2244C143.752 19.2472 144.055 20.4593 144.055 21.8608C144.055 23.4233 143.658 24.8201 142.862 26.0511C142.067 27.2727 140.916 28.2386 139.411 28.9489C137.905 29.6496 136.077 30 133.928 30H120.874ZM127.905 24.3324H132.251C133.776 24.3324 134.898 24.0436 135.618 23.4659C136.347 22.8883 136.712 22.0833 136.712 21.0511C136.712 20.303 136.536 19.6591 136.186 19.1193C135.836 18.5701 135.339 18.1487 134.695 17.8551C134.051 17.5521 133.279 17.4006 132.379 17.4006H127.905V24.3324ZM127.905 12.8693H131.797C132.564 12.8693 133.246 12.7415 133.842 12.4858C134.439 12.2301 134.903 11.8608 135.234 11.3778C135.575 10.8949 135.746 10.3125 135.746 9.63068C135.746 8.6553 135.4 7.88826 134.709 7.32955C134.018 6.77083 133.085 6.49148 131.911 6.49148H127.905V12.8693ZM153.582 0.90909V30H146.636V0.90909H153.582ZM167.388 30.4119C165.096 30.4119 163.127 29.9432 161.479 29.0057C159.841 28.0587 158.576 26.7424 157.686 25.0568C156.806 23.3617 156.365 21.3968 156.365 19.1619C156.365 16.9176 156.806 14.9527 157.686 13.267C158.576 11.572 159.841 10.2557 161.479 9.31818C163.127 8.37121 165.096 7.89773 167.388 7.89773C169.68 7.89773 171.645 8.37121 173.283 9.31818C174.931 10.2557 176.195 11.572 177.075 13.267C177.966 14.9527 178.411 16.9176 178.411 19.1619C178.411 21.3968 177.966 23.3617 177.075 25.0568C176.195 26.7424 174.931 28.0587 173.283 29.0057C171.645 29.9432 169.68 30.4119 167.388 30.4119ZM167.431 25.1705C168.264 25.1705 168.969 24.9148 169.547 24.4034C170.125 23.892 170.565 23.1818 170.868 22.2727C171.181 21.3636 171.337 20.3125 171.337 19.1193C171.337 17.9072 171.181 16.8466 170.868 15.9375C170.565 15.0284 170.125 14.3182 169.547 13.8068C168.969 13.2955 168.264 13.0398 167.431 13.0398C166.569 13.0398 165.84 13.2955 165.243 13.8068C164.656 14.3182 164.206 15.0284 163.894 15.9375C163.591 16.8466 163.439 17.9072 163.439 19.1193C163.439 20.3125 163.591 21.3636 163.894 22.2727C164.206 23.1818 164.656 23.892 165.243 24.4034C165.84 24.9148 166.569 25.1705 167.431 25.1705ZM191.339 38.6364C189.265 38.6364 187.49 38.3475 186.013 37.7699C184.535 37.1922 183.375 36.4015 182.533 35.3977C181.69 34.3939 181.183 33.2576 181.013 31.9886L187.589 31.6193C187.712 32.0644 187.94 32.4527 188.271 32.7841C188.612 33.1155 189.052 33.3712 189.592 33.5511C190.141 33.7311 190.785 33.821 191.524 33.821C192.689 33.821 193.65 33.5369 194.408 32.9688C195.175 32.41 195.558 31.4299 195.558 30.0284V26.1932H195.317C195.042 26.8655 194.625 27.4669 194.067 27.9972C193.508 28.5275 192.812 28.9441 191.979 29.2472C191.155 29.5502 190.208 29.7017 189.138 29.7017C187.547 29.7017 186.088 29.3324 184.763 28.5938C183.446 27.8456 182.39 26.6903 181.595 25.1278C180.809 23.5559 180.416 21.5341 180.416 19.0625C180.416 16.5152 180.823 14.4176 181.638 12.7699C182.452 11.1127 183.517 9.88636 184.834 9.09091C186.159 8.29545 187.585 7.89773 189.109 7.89773C190.255 7.89773 191.235 8.09659 192.05 8.49432C192.873 8.88258 193.551 9.38447 194.081 10C194.611 10.6155 195.014 11.2547 195.288 11.9176H195.487V8.18182H202.405V30.0852C202.405 31.9318 201.941 33.4896 201.013 34.7585C200.085 36.0275 198.787 36.9886 197.121 37.642C195.454 38.3049 193.527 38.6364 191.339 38.6364ZM191.552 24.6449C192.395 24.6449 193.115 24.4223 193.712 23.9773C194.308 23.5322 194.767 22.893 195.089 22.0597C195.411 21.2263 195.572 20.2273 195.572 19.0625C195.572 17.8788 195.411 16.8608 195.089 16.0085C194.777 15.1468 194.318 14.4839 193.712 14.0199C193.115 13.5559 192.395 13.3239 191.552 13.3239C190.691 13.3239 189.962 13.5606 189.365 14.0341C188.768 14.5076 188.314 15.1752 188.001 16.0369C187.698 16.8892 187.547 17.8977 187.547 19.0625C187.547 20.2273 187.703 21.2263 188.015 22.0597C188.328 22.893 188.778 23.5322 189.365 23.9773C189.962 24.4223 190.691 24.6449 191.552 24.6449Z" fill="#64748B"/>
</svg>
