<svg width="104" height="97" viewBox="0 0 104 97" fill="none" xmlns="http://www.w3.org/2000/svg">
<path d="M87.3868 4.25573L18.4036 22.7662C15.1231 23.6465 12.6815 26.3952 12.1944 29.7567L4.36476 83.7809C3.62185 88.9069 7.59726 93.5 12.7769 93.5H16.1304H91.8423C96.6401 93.5 100.487 89.5316 100.338 84.7362L98.0856 12.2015C97.9154 6.72281 92.6808 2.83517 87.3868 4.25573Z" fill="#F1F5F9" stroke="#F1F5F9" stroke-width="7"/>
<path d="M57.2974 30C53.9654 30 51.2642 32.7012 51.2642 36.0333V60.81C51.2642 65.945 47.5758 69.6336 42.1776 69.6336C36.7549 69.6336 33.091 65.945 33.091 60.81V36.0455C33.091 32.7067 30.3843 30 27.0455 30V30C23.7067 30 21 32.7067 21 36.0455V61.8467C21 72.8881 29.4515 80 42.1776 80C54.806 80 63.3307 72.8881 63.3307 61.8467V36.0333C63.3307 32.7012 60.6295 30 57.2974 30V30Z" fill="#64748B"/>
<path d="M83 36.0455C83 32.7067 80.2933 30 76.9545 30V30C73.6157 30 70.909 32.7067 70.909 36.0455V73.3277C70.909 76.6665 73.6157 79.3732 76.9545 79.3732V79.3732C80.2933 79.3732 83 76.6665 83 73.3277V36.0455Z" fill="#64748B"/>
</svg>
